# xmcd
#
# Track frame offsets:
#	150
#	20048
#	39630
#	60146
#	76592
#	104374
#	123706
#	142302
#	160399
#	174751
#	187614
#	198191
#	212401
#	233519
#	253577
#	275356
#
# Disc length: 3902 seconds
#
# Revision: 4
# Processed by: cddbd v1.5.2PL0 Copyright (c) Steve Scherf et al.
# Submitted via: audiograbber 1.83.01
#
DISCID=cb0f3c10
DTITLE=Various Artist - Out Of The Blue  Volume 8
DYEAR=2000
DGENRE=Folk-Rock
TTITLE0=Joe Pernice - Bum Leg
TTITLE1=Midnight Choir - Electric Rain
TTITLE2=The Great Crusades - Feels So Good
TTITLE3=The Walkabouts - Shot Bayou
TTITLE4=Terry Lee Hale - Texas Rose
TTITLE5=The Court And Spark - Doctor, The Veranda
TTITLE6=Rainer and Das Combo - One Man Crusade
TTITLE7=Knife In The Water - Rene
TTITLE8=Neal Casal - Fremont Row
TTITLE9=Chris Eckman - Sense Of Wonder
TTITLE10=Baptist Generals - Pats The Rub
TTITLE11=The Gourds - El Paso
TTITLE12=Johnny Dowd - Hell Or High Water
TTITLE13=Mark Olson and The Original Harmony Ridge Creek Dippers - Rainbow Of You
TTITLE13=r Heart
TTITLE14=Angie McKenna - Nothing Better
TTITLE15=Tim Gibbons - Angel Red
EXTD=\n
EXTT0=
EXTT1=
EXTT2=
EXTT3=
EXTT4=
EXTT5=
EXTT6=
EXTT7=
EXTT8=
EXTT9=
EXTT10=
EXTT11=
EXTT12=
EXTT13=
EXTT14=
EXTT15=
PLAYORDER=
